<svg width="286" height="24" viewBox="0 0 286 24" fill="none" xmlns="http://www.w3.org/2000/svg">
<path d="M15.375 23.25V19.8281C15.375 19.4531 15.7031 19.125 16.0781 19.125H21.4219C21.7969 19.125 22.125 18.7969 22.125 18.4219C22.125 18.3281 22.0781 18.1875 22.0312 18.0938L15.9375 6.98437C15.75 6.65625 15.3281 6.51562 15 6.70312C14.8594 6.75 14.7656 6.84375 14.7188 6.98437L5.8125 23.5781C5.67187 23.8125 5.4375 23.9531 5.20312 23.9531H0.703125C0.328125 23.9531 0 23.625 0 23.25C0 23.1094 0.0468736 23.0156 0.0937486 22.9219L12.75 0.375C12.8906 0.140625 13.0781 0.046875 13.3594 0H17.3437C17.5781 0 17.8125 0.140625 17.9531 0.375L30.6563 22.9219C30.8438 23.25 30.75 23.6719 30.4219 23.8594C30.3281 23.9062 30.1875 23.9531 30.0937 23.9531H16.0781C15.6562 23.9531 15.375 23.625 15.375 23.25ZM81.3281 23.9531C81.7031 23.9531 82.0312 23.625 82.0312 23.25V15.0938C82.0312 14.7188 81.7031 14.3906 81.3281 14.3906H77.9062C77.5312 14.3906 77.2031 14.7188 77.2031 15.0938V18.5156C77.2031 18.8906 76.875 19.2187 76.5 19.2187H63.5156C63.1406 19.2187 62.8125 18.8906 62.8125 18.5156V0.703125C62.8125 0.328125 62.4844 0 62.1094 0H58.6875C58.3125 0 57.9844 0.328125 57.9844 0.703125V23.25C57.9844 23.625 58.3125 23.9531 58.6875 23.9531H81.3281ZM115.406 23.9531C115.781 23.9531 116.109 23.625 116.109 23.25V15.0938C116.109 14.7188 116.391 14.3906 116.812 14.3906H134.578C134.953 14.3906 135.281 14.0625 135.281 13.6875V0.703125C135.281 0.328125 134.953 0 134.578 0H112.031C111.656 0 111.328 0.328125 111.328 0.703125V23.25C111.328 23.625 111.656 23.9531 112.031 23.9531H115.406ZM129.75 9.60938H116.766C116.391 9.60938 116.062 9.28125 116.062 8.90625V5.48438C116.062 5.10938 116.391 4.78125 116.766 4.78125H129.75C130.125 4.78125 130.453 5.10938 130.453 5.48438V8.90625C130.453 9.28125 130.172 9.60938 129.75 9.60938ZM168.656 0.0468743H165.234C164.859 0.0468743 164.531 0.374999 164.531 0.749999V23.2969C164.531 23.6719 164.859 24 165.234 24H168.656C169.031 24 169.359 23.6719 169.359 23.2969V0.703125C169.312 0.328125 169.031 0.0468743 168.656 0.0468743ZM263.812 0.0468743H254.719C254.578 0.0468743 254.484 0.374999 254.484 0.749999V4.125C254.484 4.5 254.578 4.82812 254.719 4.82812H259.687V23.2969C259.687 23.6719 260.016 24 260.391 24H263.812C264.187 24 264.516 23.6719 264.516 23.2969V0.703125C264.516 0.328125 264.187 0.0468743 263.812 0.0468743ZM285.234 0.0468743H276.141C276 0.0468743 275.906 0.374999 275.906 0.749999V4.125C275.906 4.5 276 4.82812 276.141 4.82812H281.109V23.2969C281.109 23.6719 281.437 24 281.812 24H285.234C285.609 24 285.937 23.6719 285.937 23.2969V0.703125C285.891 0.328125 285.609 0.0468743 285.234 0.0468743ZM198.609 23.2969C198.609 23.6719 198.937 23.9531 199.312 23.9531H202.734C203.109 23.9531 203.437 23.625 203.437 23.25V9.375C203.437 9.1875 203.531 8.95312 203.672 8.85937C203.953 8.625 204.375 8.625 204.656 8.90625L217.594 23.7188C217.734 23.8594 217.922 23.9531 218.109 23.9531H221.906C222.281 23.9531 222.609 23.625 222.609 23.25V0.703125C222.609 0.328125 222.281 0 221.906 0H218.484C218.109 0 217.781 0.328125 217.781 0.703125V15.0938C217.781 15.3281 217.687 15.5156 217.547 15.6562C217.266 15.8906 216.797 15.8438 216.562 15.5625L203.578 0.281249C203.437 0.140624 203.25 0.0468743 203.062 0.0468743H199.312C198.937 0.0468743 198.609 0.374999 198.609 0.749999V23.2969Z" fill="#0F151F"/>
</svg>
